<?xml version="1.0" encoding="utf-8"?>
<!-- Generator: Adobe Illustrator 16.0.0, SVG Export Plug-In . SVG Version: 6.00 Build 0)  -->
<!DOCTYPE svg PUBLIC "-//W3C//DTD SVG 1.1//EN" "http://www.w3.org/Graphics/SVG/1.1/DTD/svg11.dtd">
<svg version="1.1" id="Layer_1" xmlns="http://www.w3.org/2000/svg" xmlns:xlink="http://www.w3.org/1999/xlink" x="0px" y="0px"
	 width="232.663px" height="83.512px" viewBox="0 0 232.663 83.512" enable-background="new 0 0 232.663 83.512"
	 xml:space="preserve">
<g>
	<path fill="#58595B" d="M23.419,8.046c-0.626,0.167-1.231,0.364-1.831,0.584l0.006-0.006c-5.575,1.673-11.64-2.936-11.64-2.936
		C6.262,3.125,3.859,1.205,3.859,1.205c-0.703-0.501-1.996-1.583-3.286-1.07c-1.263,0.502-0.046,3.512-0.046,3.512l0.146,0.532
		l7.471,27.763l0.019,0.091c0,0,0.29,1.06,0.462,1.693c3.004,11.177,14.504,17.803,25.682,14.795
		c11.179-3.008,17.799-14.506,14.795-25.683C46.097,11.66,34.598,5.037,23.419,8.046z M32.207,36.907
		c-4.937,1.777-10.375-0.779-12.153-5.711c-1.779-4.934,0.779-10.375,5.713-12.155c4.934-1.779,10.374,0.779,12.153,5.714
		C39.699,29.689,37.138,35.13,32.207,36.907z"/>
	<path fill="#58595B" d="M64.773,59.018c2.616-11.276-4.404-22.537-15.682-25.152c-11.275-2.614-22.537,4.406-25.153,15.683
		c-0.146,0.639-0.397,1.709-0.397,1.709l-0.018,0.094L17.03,79.358l-0.132,0.536c0,0-1.109,3.05,0.172,3.507
		c1.309,0.467,2.562-0.658,3.243-1.184c0,0,2.335-2.001,5.938-4.692c0,0,5.9-4.819,11.527-3.339l-0.003-0.008
		c0.603,0.198,1.214,0.374,1.847,0.521C50.898,77.317,62.16,70.294,64.773,59.018z M53.391,58.518
		c-2.195,4.763-7.835,6.846-12.601,4.654c-4.763-2.193-6.847-7.832-4.652-12.598c2.192-4.762,7.831-6.848,12.597-4.654
		C53.497,48.114,55.578,53.752,53.391,58.518z"/>
	<g>
		<path fill="#58595B" d="M82.518,42.95c-1.234,1.141-2.843,1.709-4.812,1.711c-1.104,0-2.021-0.164-2.763-0.492
			c-0.74-0.328-1.419-0.923-2.033-1.784l-0.201,2.051l-3.748,0.004l2.689-27.036h3.745l-0.966,9.72
			c0.73-0.786,1.516-1.345,2.354-1.674c0.834-0.329,1.794-0.494,2.873-0.494c1.959-0.003,3.387,0.495,4.283,1.496
			c0.893,1,1.412,2.201,1.562,3.607c0.149,1.403,0.138,2.979-0.037,4.724c-0.187,1.875-0.485,3.482-0.89,4.824
			C84.165,40.95,83.48,42.064,82.518,42.95z M78.309,28.411c-1.587,0.001-2.709,0.565-3.363,1.692
			c-0.653,1.126-1.078,2.688-1.277,4.69c-0.205,2.048-0.092,3.63,0.343,4.743c0.428,1.114,1.437,1.672,3.026,1.67
			c1.59,0,2.701-0.558,3.341-1.673c0.642-1.114,1.063-2.696,1.269-4.744c0.201-2.028,0.092-3.595-0.327-4.709
			C80.9,28.968,79.895,28.411,78.309,28.411z"/>
		<path fill="#58595B" d="M96.563,44.46l0.172-1.747c-0.795,0.721-1.571,1.223-2.32,1.51c-0.752,0.285-1.73,0.428-2.928,0.428
			c-2.247,0-3.852-0.553-4.814-1.666c-0.963-1.112-1.363-2.517-1.192-4.213c0.168-1.67,0.864-3.012,2.097-4.026
			c1.232-1.012,2.913-1.521,5.053-1.521l5.05-0.005l0.134-1.365c0.126-1.241-0.112-2.152-0.709-2.734
			c-0.599-0.581-1.638-0.871-3.123-0.871c-1.037,0.001-1.874,0.133-2.516,0.4c-0.646,0.266-1.266,0.753-1.865,1.462l-2.271-2.392
			c0.973-1.012,2-1.729,3.078-2.146c1.08-0.417,2.416-0.628,4.014-0.628c5.219-0.003,7.608,2.202,7.168,6.614l-1.28,12.895
			L96.563,44.46z M97.412,35.918L92.91,35.92c-2.293,0-3.53,0.926-3.714,2.774c-0.184,1.822,0.901,2.733,3.243,2.731
			c0.908,0,1.613-0.064,2.118-0.19c0.505-0.126,1.046-0.452,1.626-0.972c0.581-0.517,0.939-1.447,1.076-2.791L97.412,35.918z"/>
		<path fill="#58595B" d="M110.324,44.643c-2.396,0.002-4.328-0.794-5.793-2.388c-1.463-1.596-2.025-4.088-1.689-7.481
			c0.336-3.364,1.394-5.845,3.176-7.44c1.781-1.598,3.869-2.395,6.27-2.396c1.345,0,2.473,0.202,3.381,0.605
			c0.91,0.407,1.775,1.101,2.604,2.086l-2.876,2.586c-0.981-1.217-2.134-1.823-3.454-1.823c-1.501,0.001-2.699,0.528-3.602,1.579
			c-0.904,1.05-1.463,2.65-1.678,4.804c-0.217,2.178,0.021,3.792,0.719,4.84c0.69,1.05,1.791,1.576,3.289,1.571
			c0.773,0,1.422-0.125,1.947-0.377c0.522-0.252,1.146-0.736,1.864-1.446l2.372,2.543C114.971,43.729,112.797,44.641,110.324,44.643
			z"/>
		<path fill="#58595B" d="M129.6,44.46l-4.393-8.917l-3.13,3.257l-0.574,5.646h-3.817l2.692-27.069l3.817-0.003l-1.656,16.668
			l8.262-8.889l4.646,0.002l-7.354,7.542l6.257,11.742L129.6,44.46z"/>
		<path fill="#58595B" d="M148.42,42.915c-1.244,1.138-2.846,1.709-4.809,1.709c-1.104,0-2.029-0.158-2.777-0.473
			c-0.75-0.316-1.419-0.892-2.012-1.726l-0.975,9.794l-3.748,0.004l2.693-27.072l3.744-0.002l-0.199,2.013
			c0.758-0.821,1.544-1.401,2.363-1.739c0.822-0.336,1.779-0.503,2.879-0.503c0.947,0,1.807,0.144,2.577,0.434
			s1.47,0.79,2.101,1.498c0.626,0.708,1.018,1.765,1.164,3.171c0.146,1.403,0.131,2.978-0.043,4.726
			c-0.184,1.874-0.482,3.48-0.893,4.822C150.076,40.912,149.389,42.026,148.42,42.915z M144.229,28.336
			c-1.59,0.001-2.712,0.565-3.366,1.698c-0.653,1.128-1.082,2.698-1.277,4.703c-0.207,2.057-0.095,3.642,0.336,4.759
			c0.435,1.118,1.44,1.674,3.033,1.672c1.586,0,2.699-0.56,3.341-1.677c0.639-1.119,1.063-2.702,1.265-4.76
			c0.205-2.03,0.099-3.604-0.323-4.72C146.818,28.893,145.816,28.336,144.229,28.336z"/>
		<path fill="#58595B" d="M162.475,44.424l0.174-1.748c-0.794,0.721-1.567,1.225-2.319,1.512c-0.755,0.285-1.728,0.427-2.929,0.428
			c-2.246,0-3.852-0.556-4.814-1.668c-0.963-1.113-1.359-2.518-1.191-4.212c0.168-1.67,0.865-3.013,2.097-4.026
			c1.229-1.013,2.916-1.522,5.053-1.522l5.053-0.002l0.132-1.365c0.125-1.243-0.11-2.153-0.709-2.736
			c-0.597-0.581-1.639-0.873-3.125-0.869c-1.033,0-1.87,0.131-2.516,0.398c-0.645,0.266-1.262,0.754-1.864,1.461l-2.271-2.39
			c0.975-1.012,1.998-1.728,3.078-2.146c1.075-0.417,2.414-0.626,4.013-0.628c5.218-0.004,7.611,2.203,7.171,6.613l-1.283,12.896
			L162.475,44.424z M163.328,35.88l-4.5,0.003c-2.295,0.001-3.533,0.925-3.717,2.774c-0.181,1.823,0.902,2.733,3.243,2.733
			c0.905-0.001,1.614-0.064,2.118-0.193c0.504-0.125,1.045-0.451,1.629-0.969c0.578-0.52,0.936-1.45,1.067-2.792L163.328,35.88z"/>
		<path fill="#58595B" d="M176.242,44.604c-2.396,0.002-4.328-0.793-5.793-2.387c-1.463-1.594-2.029-4.085-1.693-7.478
			c0.34-3.366,1.395-5.846,3.176-7.442c1.783-1.596,3.871-2.395,6.27-2.395c1.349-0.002,2.477,0.202,3.387,0.604
			c0.905,0.406,1.773,1.101,2.599,2.086l-2.876,2.585c-0.979-1.214-2.131-1.822-3.454-1.822c-1.498,0.002-2.699,0.527-3.601,1.579
			c-0.905,1.05-1.465,2.651-1.676,4.804c-0.22,2.178,0.021,3.789,0.715,4.838c0.694,1.053,1.792,1.576,3.289,1.576
			c0.773,0,1.422-0.128,1.947-0.382c0.523-0.254,1.146-0.735,1.868-1.444l2.369,2.543C180.889,43.692,178.712,44.604,176.242,44.604
			z"/>
		<path fill="#58595B" d="M195.515,44.424l-4.392-8.918l-3.128,3.26l-0.574,5.645H183.6l2.693-27.068l3.82-0.003l-1.66,16.667
			l8.264-8.887h4.648l-7.354,7.542l6.257,11.739L195.515,44.424z"/>
		<path fill="#58595B" d="M204.486,35.857c-0.168,1.698,0.116,3.019,0.859,3.969c0.746,0.946,1.889,1.421,3.436,1.421
			c1.049-0.003,1.913-0.147,2.592-0.439c0.676-0.293,1.412-0.805,2.207-1.539l2.21,2.314c-1.131,1.042-2.247,1.799-3.353,2.28
			c-1.113,0.48-2.465,0.724-4.063,0.724c-2.623,0.001-4.631-0.769-6.025-2.313c-1.395-1.542-1.916-4.061-1.571-7.555
			c0.31-3.085,1.269-5.499,2.889-7.232c1.623-1.735,3.671-2.603,6.142-2.604c2.496,0,4.38,0.85,5.645,2.56
			c1.266,1.707,1.762,3.94,1.489,6.699l-0.171,1.708L204.486,35.857z M212.993,30.537c-0.224-0.732-0.646-1.32-1.259-1.764
			c-0.615-0.443-1.357-0.663-2.229-0.663c-0.896,0.001-1.688,0.218-2.373,0.646c-0.69,0.431-1.237,1.027-1.635,1.785
			c-0.397,0.759-0.648,1.632-0.746,2.621l8.504-0.006C213.348,32.22,213.262,31.349,212.993,30.537z"/>
		<path fill="#58595B" d="M229.487,29.617c-0.38-0.43-0.78-0.752-1.198-0.966c-0.412-0.216-0.92-0.323-1.52-0.323
			c-1.076,0-2.014,0.395-2.813,1.182c-0.807,0.786-1.271,1.838-1.402,3.159l-1.164,11.721h-3.748l1.92-19.285h3.747l-0.211,2.088
			c0.52-0.685,1.253-1.243,2.207-1.672c0.956-0.431,1.956-0.648,3.005-0.648c1,0,1.815,0.127,2.451,0.379
			c0.639,0.251,1.271,0.734,1.901,1.441L229.487,29.617z"/>
	</g>
	<g>
		<g>
			<path fill="#58595B" d="M184.242,65.403v-1.392c-0.469,0.565-0.969,0.968-1.511,1.198c-0.544,0.232-1.192,0.35-1.95,0.35
				c-0.65,0-1.253-0.101-1.803-0.298c-0.554-0.196-1.07-0.536-1.547-1.019c-0.483-0.48-0.822-1.202-1.024-2.154
				c-0.195-0.955-0.29-2.034-0.29-3.24c0-1.613,0.125-2.826,0.385-3.622c0.26-0.801,0.703-1.51,1.324-2.129
				c0.626-0.62,1.61-0.928,2.961-0.928c0.743,0,1.389,0.106,1.932,0.321c0.548,0.215,1.055,0.6,1.523,1.147v-6.605h2.58v18.37
				H184.242z M181.503,54.516c-1.091,0-1.825,0.381-2.198,1.148c-0.375,0.765-0.559,1.828-0.559,3.184
				c0,1.396,0.184,2.471,0.559,3.227c0.373,0.758,1.107,1.137,2.198,1.137c1.097,0,1.827-0.379,2.191-1.137
				c0.364-0.756,0.548-1.831,0.548-3.227c0-1.375-0.184-2.44-0.548-3.197C183.33,54.895,182.6,54.516,181.503,54.516z"/>
			<path fill="#58595B" d="M190.664,59.624c0,1.154,0.287,2.053,0.865,2.697c0.574,0.644,1.396,0.967,2.463,0.967
				c0.725,0,1.306-0.098,1.755-0.296s0.92-0.548,1.419-1.046l1.678,1.573c-0.706,0.706-1.425,1.223-2.155,1.548
				c-0.733,0.328-1.647,0.492-2.745,0.492c-1.807,0-3.246-0.523-4.313-1.574c-1.066-1.049-1.599-2.762-1.599-5.137
				c0-2.098,0.498-3.736,1.497-4.912c0.997-1.178,2.348-1.767,4.051-1.767c1.718,0,3.072,0.579,4.065,1.739
				c0.987,1.163,1.482,2.68,1.482,4.555v1.16H190.664z M196.16,56.012c-0.205-0.5-0.532-0.9-0.988-1.199
				c-0.455-0.303-0.98-0.451-1.58-0.451c-0.617,0-1.146,0.145-1.592,0.438c-0.447,0.293-0.779,0.695-1.003,1.213
				c-0.224,0.516-0.333,1.109-0.333,1.78h5.856C196.521,57.157,196.401,56.562,196.16,56.012z"/>
			<path fill="#58595B" d="M207.356,65.43v-1.188c-0.498,0.49-0.997,0.83-1.497,1.025c-0.496,0.193-1.159,0.291-1.984,0.291
				c-1.55,0-2.693-0.379-3.433-1.135c-0.739-0.758-1.11-1.713-1.11-2.863c0-1.137,0.389-2.048,1.168-2.736s1.904-1.032,3.378-1.032
				h3.479v-0.929c0-0.843-0.224-1.461-0.679-1.857c-0.452-0.396-1.186-0.594-2.21-0.594c-0.712,0-1.28,0.091-1.706,0.271
				c-0.424,0.178-0.818,0.51-1.186,0.994l-1.727-1.627c0.602-0.688,1.262-1.176,1.971-1.457c0.716-0.283,1.623-0.425,2.725-0.425
				c3.592,0,5.392,1.497,5.392,4.497v8.764H207.356z M207.356,59.624h-3.097c-1.58,0-2.371,0.629-2.371,1.883
				c0,1.239,0.807,1.858,2.42,1.858c0.624,0,1.107-0.043,1.446-0.128c0.337-0.084,0.69-0.305,1.058-0.659
				c0.363-0.352,0.544-0.983,0.544-1.897V59.624z"/>
			<path fill="#58595B" d="M215.2,65.43c-1.188,0-2.081-0.34-2.685-1.021c-0.602-0.68-0.9-1.545-0.9-2.597V47.033h2.631v14.628
				c0,0.517,0.107,0.898,0.321,1.149c0.217,0.251,0.581,0.374,1.097,0.374h1.162v2.246H215.2z"/>
			<path fill="#58595B" d="M221.65,65.559c-1.187,0-2.217-0.135-3.082-0.402c-0.871-0.266-1.675-0.76-2.412-1.483l1.728-1.728
				c0.483,0.498,1.052,0.852,1.702,1.059c0.651,0.207,1.342,0.309,2.064,0.309c0.843,0,1.527-0.15,2.063-0.449
				c0.532-0.301,0.801-0.754,0.801-1.357c0-0.48-0.137-0.859-0.416-1.135c-0.271-0.274-0.721-0.412-1.338-0.412l-2.092-0.18
				c-1.271-0.104-2.234-0.447-2.889-1.032c-0.653-0.585-0.98-1.446-0.98-2.581c0-1.254,0.461-2.236,1.381-2.941
				c0.921-0.705,2.104-1.056,3.547-1.056c1.015,0,1.928,0.114,2.735,0.349c0.808,0.23,1.513,0.605,2.118,1.12l-1.653,1.679
				c-0.376-0.328-0.856-0.568-1.434-0.725c-0.575-0.152-1.174-0.23-1.792-0.23c-0.773,0-1.363,0.148-1.766,0.451
				c-0.407,0.299-0.609,0.709-0.609,1.225c0,0.432,0.135,0.77,0.4,1.02c0.267,0.25,0.737,0.41,1.406,0.475l2.066,0.182
				c1.271,0.105,2.238,0.457,2.904,1.059c0.66,0.604,0.99,1.48,0.99,2.632c0,1.325-0.504,2.348-1.514,3.07
				C224.578,65.198,223.267,65.559,221.65,65.559z"/>
		</g>
	</g>
</g>
</svg>
